<svg id="Layer_1" data-name="Layer 1" xmlns="http://www.w3.org/2000/svg" viewBox="0 0 149.98 149.98"><defs><style>.cls-1,.cls-3{fill:#fed136;}.cls-2,.cls-4{fill:#fff;}.cls-2{stroke:#fff;}.cls-2,.cls-3{stroke-miterlimit:10;stroke-width:4px;}.cls-3{stroke:#fed136;}</style></defs><circle class="cls-1" cx="74.99" cy="74.99" r="74.99"/><rect class="cls-2" x="47.99" y="27.99" width="55" height="36"/><polyline class="cls-2" points="28.99 31.99 74.99 15.99 122.99 31.99"/><path class="cls-3" d="M92.5,36h-33A4.5,4.5,0,0,0,55,40.5v23A4.5,4.5,0,0,0,59.5,68h33A4.5,4.5,0,0,0,97,63.5v-23A4.51,4.51,0,0,0,92.5,36Z" transform="translate(-0.01 -1.01)"/><rect class="cls-1" x="52.99" y="59.99" width="46" height="8"/><rect class="cls-4" x="54.99" y="36.99" width="42" height="2"/><rect class="cls-4" x="54.99" y="40.99" width="42" height="2"/><rect class="cls-4" x="54.99" y="44.99" width="42" height="2"/><rect class="cls-4" x="54.99" y="48.99" width="42" height="2"/><rect class="cls-4" x="54.99" y="52.99" width="42" height="2"/><rect class="cls-4" x="54.99" y="56.99" width="42" height="2"/><rect class="cls-4" x="54.99" y="60.99" width="42" height="2"/><rect class="cls-4" x="54.99" y="63.99" width="42" height="2"/><polygon class="cls-4" points="54.99 67.99 96.99 67.99 114.99 112.99 36.99 112.99 54.99 67.99"/></svg>